<svg xmlns="http://www.w3.org/2000/svg" viewBox="0 0 24 24"><path d="M22.46,6c-.77.35-1.6.58-2.46.69.88-.53,1.56-1.37,1.88-2.38-.83.5-1.75.85-2.72,1.05C18.37,4.5,17.26,4,16,4c-2.35,0-4.27,1.92-4.27,4.29,0,.34,.04,.67,.11,1-3.54-.18-6.69-1.88-8.8-4.47-.37.63-.58,1.37-.58,2.15,0,1.49,.76,2.8,1.9,3.57-.71,0-1.37-.22-1.95-.55v.05c0,2.08,1.48,3.82,3.44,4.21-.36.1-.74.15-1.13.15-.28,0-.55-.03-.81-.08.55,1.7,2.14,2.94,4.03,2.97-1.47,1.15-3.33,1.83-5.35,1.83-.35,0-.69-.02-1.03-.06,1.9,1.22,4.16,1.93,6.58,1.93,7.89,0,12.21-6.54,12.21-12.21,0-.19,0-.37-.01-.56.84-.6,1.56-1.36,2.14-2.22z"/></svg>